<mxfile host="app.diagrams.net" agent="Mozilla/5.0 (X11; Linux x86_64) AppleWebKit/537.36 (KHTML, like Gecko) Chrome/127.0.0.0 Safari/537.36" version="24.7.4">
  <diagram name="Page-1" id="N8TCYkgQXgFbl_DbBmWF">
    <mxGraphModel grid="1" page="1" gridSize="10" guides="1" tooltips="1" connect="1" arrows="1" fold="1" pageScale="1" pageWidth="850" pageHeight="1100" math="0" shadow="0">
      <root>
        <mxCell id="0" />
        <mxCell id="1" parent="0" />
        <mxCell id="zfDrhFq64TPoC2MhpXb6-1" value="&lt;b&gt;User&lt;/b&gt;" style="rounded=1;whiteSpace=wrap;html=1;strokeWidth=3;" vertex="1" parent="1">
          <mxGeometry x="50" y="130" width="120" height="60" as="geometry" />
        </mxCell>
        <mxCell id="zfDrhFq64TPoC2MhpXb6-3" value="&lt;b&gt;View Enrolled&lt;/b&gt;&lt;div&gt;&lt;b&gt;Student&lt;/b&gt;&lt;/div&gt;" style="ellipse;whiteSpace=wrap;html=1;strokeWidth=3;" vertex="1" parent="1">
          <mxGeometry x="290" y="120" width="120" height="80" as="geometry" />
        </mxCell>
        <mxCell id="zfDrhFq64TPoC2MhpXb6-4" value="&lt;b&gt;View Enrolled&lt;/b&gt;&lt;div&gt;&lt;b&gt;Student&lt;/b&gt;&lt;/div&gt;" style="ellipse;whiteSpace=wrap;html=1;strokeWidth=3;" vertex="1" parent="1">
          <mxGeometry x="520" y="120" width="120" height="80" as="geometry" />
        </mxCell>
        <mxCell id="zfDrhFq64TPoC2MhpXb6-5" value="" style="endArrow=classic;html=1;rounded=0;exitX=1.001;exitY=0.325;exitDx=0;exitDy=0;exitPerimeter=0;entryX=0.004;entryY=0.38;entryDx=0;entryDy=0;entryPerimeter=0;strokeWidth=3;" edge="1" parent="1" source="zfDrhFq64TPoC2MhpXb6-1" target="zfDrhFq64TPoC2MhpXb6-3">
          <mxGeometry width="50" height="50" relative="1" as="geometry">
            <mxPoint x="180" y="220" as="sourcePoint" />
            <mxPoint x="230" y="170" as="targetPoint" />
          </mxGeometry>
        </mxCell>
        <mxCell id="zfDrhFq64TPoC2MhpXb6-6" value="" style="endArrow=classic;html=1;rounded=0;exitX=0.001;exitY=0.613;exitDx=0;exitDy=0;exitPerimeter=0;entryX=1.004;entryY=0.643;entryDx=0;entryDy=0;entryPerimeter=0;strokeWidth=3;" edge="1" parent="1" source="zfDrhFq64TPoC2MhpXb6-3" target="zfDrhFq64TPoC2MhpXb6-1">
          <mxGeometry width="50" height="50" relative="1" as="geometry">
            <mxPoint x="180" y="220" as="sourcePoint" />
            <mxPoint x="230" y="170" as="targetPoint" />
          </mxGeometry>
        </mxCell>
        <mxCell id="zfDrhFq64TPoC2MhpXb6-7" value="&lt;b&gt;Student List&lt;/b&gt;" style="text;strokeColor=none;align=center;fillColor=none;html=1;verticalAlign=middle;whiteSpace=wrap;rounded=0;" vertex="1" parent="1">
          <mxGeometry x="180" y="120" width="80" height="30" as="geometry" />
        </mxCell>
        <mxCell id="zfDrhFq64TPoC2MhpXb6-8" value="&lt;b&gt;Course ID&lt;/b&gt;" style="text;strokeColor=none;align=center;fillColor=none;html=1;verticalAlign=middle;whiteSpace=wrap;rounded=0;" vertex="1" parent="1">
          <mxGeometry x="210" y="170" width="60" height="30" as="geometry" />
        </mxCell>
        <mxCell id="zfDrhFq64TPoC2MhpXb6-9" value="" style="endArrow=classic;html=1;rounded=0;exitX=1;exitY=0.5;exitDx=0;exitDy=0;strokeWidth=3;" edge="1" parent="1" source="zfDrhFq64TPoC2MhpXb6-3" target="zfDrhFq64TPoC2MhpXb6-4">
          <mxGeometry width="50" height="50" relative="1" as="geometry">
            <mxPoint x="470" y="110" as="sourcePoint" />
            <mxPoint x="520" y="60" as="targetPoint" />
          </mxGeometry>
        </mxCell>
        <mxCell id="zfDrhFq64TPoC2MhpXb6-12" value="&lt;b&gt;Course ID&lt;/b&gt;" style="text;strokeColor=none;align=center;fillColor=none;html=1;verticalAlign=middle;whiteSpace=wrap;rounded=0;" vertex="1" parent="1">
          <mxGeometry x="430" y="160" width="60" height="30" as="geometry" />
        </mxCell>
        <mxCell id="zfDrhFq64TPoC2MhpXb6-13" value="&lt;b&gt;List of&lt;/b&gt;&lt;div&gt;&lt;b&gt;Student&lt;/b&gt;&lt;/div&gt;&lt;div&gt;&lt;b&gt;Enrolled in&lt;/b&gt;&lt;/div&gt;&lt;div&gt;&lt;b&gt;particular&lt;/b&gt;&lt;/div&gt;&lt;div&gt;&lt;b&gt;Course&lt;/b&gt;&lt;/div&gt;" style="text;strokeColor=none;align=center;fillColor=none;html=1;verticalAlign=middle;whiteSpace=wrap;rounded=0;" vertex="1" parent="1">
          <mxGeometry x="720" y="110" width="100" height="100" as="geometry" />
        </mxCell>
        <mxCell id="zfDrhFq64TPoC2MhpXb6-14" value="" style="endArrow=none;html=1;rounded=0;strokeWidth=3;entryX=1;entryY=0;entryDx=0;entryDy=0;exitX=0;exitY=0;exitDx=0;exitDy=0;" edge="1" parent="1" source="zfDrhFq64TPoC2MhpXb6-13" target="zfDrhFq64TPoC2MhpXb6-13">
          <mxGeometry width="50" height="50" relative="1" as="geometry">
            <mxPoint x="700" y="70" as="sourcePoint" />
            <mxPoint x="740" y="110" as="targetPoint" />
          </mxGeometry>
        </mxCell>
        <mxCell id="zfDrhFq64TPoC2MhpXb6-15" value="" style="endArrow=none;html=1;rounded=0;strokeWidth=3;entryX=1;entryY=1;entryDx=0;entryDy=0;exitX=0;exitY=1;exitDx=0;exitDy=0;" edge="1" parent="1" source="zfDrhFq64TPoC2MhpXb6-13" target="zfDrhFq64TPoC2MhpXb6-13">
          <mxGeometry width="50" height="50" relative="1" as="geometry">
            <mxPoint x="710" y="230" as="sourcePoint" />
            <mxPoint x="810" y="230" as="targetPoint" />
          </mxGeometry>
        </mxCell>
        <mxCell id="zfDrhFq64TPoC2MhpXb6-17" value="" style="endArrow=classic;html=1;rounded=0;exitX=1;exitY=0.5;exitDx=0;exitDy=0;strokeWidth=3;" edge="1" parent="1" source="zfDrhFq64TPoC2MhpXb6-4">
          <mxGeometry width="50" height="50" relative="1" as="geometry">
            <mxPoint x="580" y="230" as="sourcePoint" />
            <mxPoint x="710" y="160" as="targetPoint" />
          </mxGeometry>
        </mxCell>
        <mxCell id="zfDrhFq64TPoC2MhpXb6-18" value="&lt;b&gt;Stored&lt;br&gt;Database&lt;/b&gt;" style="text;strokeColor=none;align=center;fillColor=none;html=1;verticalAlign=middle;whiteSpace=wrap;rounded=0;" vertex="1" parent="1">
          <mxGeometry x="640" y="110" width="60" height="30" as="geometry" />
        </mxCell>
        <mxCell id="zfDrhFq64TPoC2MhpXb6-19" value="&lt;b&gt;View Attendance&lt;/b&gt;" style="text;strokeColor=none;align=center;fillColor=none;html=1;verticalAlign=middle;whiteSpace=wrap;rounded=0;" vertex="1" parent="1">
          <mxGeometry x="535" y="300" width="90" height="50" as="geometry" />
        </mxCell>
        <mxCell id="zfDrhFq64TPoC2MhpXb6-20" value="" style="endArrow=none;html=1;rounded=0;strokeWidth=3;exitX=0;exitY=0;exitDx=0;exitDy=0;entryX=1;entryY=0;entryDx=0;entryDy=0;" edge="1" parent="1" source="zfDrhFq64TPoC2MhpXb6-19" target="zfDrhFq64TPoC2MhpXb6-19">
          <mxGeometry width="50" height="50" relative="1" as="geometry">
            <mxPoint x="480" y="300" as="sourcePoint" />
            <mxPoint x="530" y="250" as="targetPoint" />
          </mxGeometry>
        </mxCell>
        <mxCell id="zfDrhFq64TPoC2MhpXb6-21" value="" style="endArrow=none;html=1;rounded=0;strokeWidth=3;exitX=0;exitY=1;exitDx=0;exitDy=0;entryX=1;entryY=1;entryDx=0;entryDy=0;" edge="1" parent="1" source="zfDrhFq64TPoC2MhpXb6-19" target="zfDrhFq64TPoC2MhpXb6-19">
          <mxGeometry width="50" height="50" relative="1" as="geometry">
            <mxPoint x="545" y="310" as="sourcePoint" />
            <mxPoint x="635" y="310" as="targetPoint" />
          </mxGeometry>
        </mxCell>
        <mxCell id="zfDrhFq64TPoC2MhpXb6-22" value="&lt;b&gt;Attendance Detail&lt;/b&gt;" style="text;strokeColor=none;align=center;fillColor=none;html=1;verticalAlign=middle;whiteSpace=wrap;rounded=0;" vertex="1" parent="1">
          <mxGeometry x="305" y="300" width="90" height="50" as="geometry" />
        </mxCell>
        <mxCell id="zfDrhFq64TPoC2MhpXb6-23" value="" style="endArrow=none;html=1;rounded=0;strokeWidth=3;exitX=0;exitY=0;exitDx=0;exitDy=0;entryX=1;entryY=0;entryDx=0;entryDy=0;" edge="1" parent="1" source="zfDrhFq64TPoC2MhpXb6-22" target="zfDrhFq64TPoC2MhpXb6-22">
          <mxGeometry width="50" height="50" relative="1" as="geometry">
            <mxPoint x="320" y="280" as="sourcePoint" />
            <mxPoint x="410" y="280" as="targetPoint" />
          </mxGeometry>
        </mxCell>
        <mxCell id="zfDrhFq64TPoC2MhpXb6-24" value="" style="endArrow=none;html=1;rounded=0;strokeWidth=3;exitX=0;exitY=1;exitDx=0;exitDy=0;entryX=1;entryY=1;entryDx=0;entryDy=0;" edge="1" parent="1" source="zfDrhFq64TPoC2MhpXb6-22" target="zfDrhFq64TPoC2MhpXb6-22">
          <mxGeometry width="50" height="50" relative="1" as="geometry">
            <mxPoint x="315" y="310" as="sourcePoint" />
            <mxPoint x="405" y="310" as="targetPoint" />
          </mxGeometry>
        </mxCell>
        <mxCell id="zfDrhFq64TPoC2MhpXb6-25" value="" style="endArrow=classic;html=1;rounded=0;strokeWidth=3;" edge="1" parent="1">
          <mxGeometry width="50" height="50" relative="1" as="geometry">
            <mxPoint x="770" y="210" as="sourcePoint" />
            <mxPoint x="640" y="320" as="targetPoint" />
            <Array as="points">
              <mxPoint x="770" y="320" />
            </Array>
          </mxGeometry>
        </mxCell>
        <mxCell id="zfDrhFq64TPoC2MhpXb6-26" value="" style="endArrow=classic;html=1;rounded=0;strokeWidth=3;" edge="1" parent="1">
          <mxGeometry width="50" height="50" relative="1" as="geometry">
            <mxPoint x="520" y="320" as="sourcePoint" />
            <mxPoint x="400" y="320" as="targetPoint" />
          </mxGeometry>
        </mxCell>
        <mxCell id="zfDrhFq64TPoC2MhpXb6-27" value="&lt;b&gt;Data of&lt;/b&gt;&lt;div&gt;&lt;b&gt;Attendance&lt;/b&gt;&lt;/div&gt;" style="text;strokeColor=none;align=center;fillColor=none;html=1;verticalAlign=middle;whiteSpace=wrap;rounded=0;" vertex="1" parent="1">
          <mxGeometry x="680" y="280" width="60" height="30" as="geometry" />
        </mxCell>
        <mxCell id="zfDrhFq64TPoC2MhpXb6-28" value="&lt;b&gt;Get Attendance&lt;/b&gt;" style="text;strokeColor=none;align=center;fillColor=none;html=1;verticalAlign=middle;whiteSpace=wrap;rounded=0;" vertex="1" parent="1">
          <mxGeometry x="430" y="280" width="60" height="30" as="geometry" />
        </mxCell>
        <mxCell id="zfDrhFq64TPoC2MhpXb6-29" value="&lt;b&gt;fig. DFD Level 2&lt;/b&gt;" style="text;strokeColor=none;align=center;fillColor=none;html=1;verticalAlign=middle;whiteSpace=wrap;rounded=0;" vertex="1" parent="1">
          <mxGeometry x="370" y="420" width="110" height="30" as="geometry" />
        </mxCell>
      </root>
    </mxGraphModel>
  </diagram>
</mxfile>
